<mxfile host="Electron" agent="Mozilla/5.0 (Windows NT 10.0; Win64; x64) AppleWebKit/537.36 (KHTML, like Gecko) draw.io/28.2.8 Chrome/140.0.7339.240 Electron/38.4.0 Safari/537.36" version="28.2.8">
  <diagram name="Page-1" id="B_ooV34p3ugz_c9QM28n">
    <mxGraphModel dx="1426" dy="841" grid="1" gridSize="10" guides="1" tooltips="1" connect="1" arrows="1" fold="1" page="1" pageScale="1" pageWidth="850" pageHeight="1100" math="0" shadow="0">
      <root>
        <mxCell id="0" />
        <mxCell id="1" parent="0" />
        <mxCell id="LolMLs2FBR9ibZrBii9a-2" value="" style="shape=table;startSize=0;container=1;collapsible=0;childLayout=tableLayout;" parent="1" vertex="1">
          <mxGeometry x="107" y="240" width="690" height="350" as="geometry" />
        </mxCell>
        <mxCell id="LolMLs2FBR9ibZrBii9a-3" value="" style="shape=tableRow;horizontal=0;startSize=0;swimlaneHead=0;swimlaneBody=0;strokeColor=inherit;top=0;left=0;bottom=0;right=0;collapsible=0;dropTarget=0;fillColor=none;points=[[0,0.5],[1,0.5]];portConstraint=eastwest;" parent="LolMLs2FBR9ibZrBii9a-2" vertex="1">
          <mxGeometry width="690" height="70" as="geometry" />
        </mxCell>
        <mxCell id="LolMLs2FBR9ibZrBii9a-4" value="use case A" style="shape=partialRectangle;html=1;whiteSpace=wrap;connectable=0;strokeColor=inherit;overflow=hidden;fillColor=none;top=0;left=0;bottom=0;right=0;pointerEvents=1;" parent="LolMLs2FBR9ibZrBii9a-3" vertex="1">
          <mxGeometry width="143" height="70" as="geometry">
            <mxRectangle width="143" height="70" as="alternateBounds" />
          </mxGeometry>
        </mxCell>
        <mxCell id="LolMLs2FBR9ibZrBii9a-5" value="&lt;br&gt;&lt;span style=&quot;color: rgb(255, 255, 255); font-family: Helvetica; font-size: 12px; font-style: normal; font-variant-ligatures: normal; font-variant-caps: normal; font-weight: 400; letter-spacing: normal; orphans: 2; text-align: center; text-indent: 0px; text-transform: none; widows: 2; word-spacing: 0px; -webkit-text-stroke-width: 0px; white-space: normal; background-color: rgb(27, 29, 30); text-decoration-thickness: initial; text-decoration-style: initial; text-decoration-color: initial; display: inline !important; float: none;&quot;&gt;use case B&lt;/span&gt;&lt;div&gt;&lt;br/&gt;&lt;/div&gt;" style="shape=partialRectangle;html=1;whiteSpace=wrap;connectable=0;strokeColor=inherit;overflow=hidden;fillColor=none;top=0;left=0;bottom=0;right=0;pointerEvents=1;" parent="LolMLs2FBR9ibZrBii9a-3" vertex="1">
          <mxGeometry x="143" width="140" height="70" as="geometry">
            <mxRectangle width="140" height="70" as="alternateBounds" />
          </mxGeometry>
        </mxCell>
        <mxCell id="LolMLs2FBR9ibZrBii9a-6" value="mối quan hệ&amp;nbsp;" style="shape=partialRectangle;html=1;whiteSpace=wrap;connectable=0;strokeColor=inherit;overflow=hidden;fillColor=none;top=0;left=0;bottom=0;right=0;pointerEvents=1;" parent="LolMLs2FBR9ibZrBii9a-3" vertex="1">
          <mxGeometry x="283" width="150" height="70" as="geometry">
            <mxRectangle width="150" height="70" as="alternateBounds" />
          </mxGeometry>
        </mxCell>
        <mxCell id="LolMLs2FBR9ibZrBii9a-7" value="giải thích" style="shape=partialRectangle;html=1;whiteSpace=wrap;connectable=0;strokeColor=inherit;overflow=hidden;fillColor=none;top=0;left=0;bottom=0;right=0;pointerEvents=1;" parent="LolMLs2FBR9ibZrBii9a-3" vertex="1">
          <mxGeometry x="433" width="257" height="70" as="geometry">
            <mxRectangle width="257" height="70" as="alternateBounds" />
          </mxGeometry>
        </mxCell>
        <mxCell id="LolMLs2FBR9ibZrBii9a-8" value="" style="shape=tableRow;horizontal=0;startSize=0;swimlaneHead=0;swimlaneBody=0;strokeColor=inherit;top=0;left=0;bottom=0;right=0;collapsible=0;dropTarget=0;fillColor=none;points=[[0,0.5],[1,0.5]];portConstraint=eastwest;" parent="LolMLs2FBR9ibZrBii9a-2" vertex="1">
          <mxGeometry y="70" width="690" height="70" as="geometry" />
        </mxCell>
        <mxCell id="LolMLs2FBR9ibZrBii9a-9" value="đặt hàng" style="shape=partialRectangle;html=1;whiteSpace=wrap;connectable=0;strokeColor=inherit;overflow=hidden;fillColor=none;top=0;left=0;bottom=0;right=0;pointerEvents=1;" parent="LolMLs2FBR9ibZrBii9a-8" vertex="1">
          <mxGeometry width="143" height="70" as="geometry">
            <mxRectangle width="143" height="70" as="alternateBounds" />
          </mxGeometry>
        </mxCell>
        <mxCell id="LolMLs2FBR9ibZrBii9a-10" value="kiểm tra giỏ hàng" style="shape=partialRectangle;html=1;whiteSpace=wrap;connectable=0;strokeColor=inherit;overflow=hidden;fillColor=none;top=0;left=0;bottom=0;right=0;pointerEvents=1;" parent="LolMLs2FBR9ibZrBii9a-8" vertex="1">
          <mxGeometry x="143" width="140" height="70" as="geometry">
            <mxRectangle width="140" height="70" as="alternateBounds" />
          </mxGeometry>
        </mxCell>
        <mxCell id="LolMLs2FBR9ibZrBii9a-11" value="include" style="shape=partialRectangle;html=1;whiteSpace=wrap;connectable=0;strokeColor=inherit;overflow=hidden;fillColor=none;top=0;left=0;bottom=0;right=0;pointerEvents=1;" parent="LolMLs2FBR9ibZrBii9a-8" vertex="1">
          <mxGeometry x="283" width="150" height="70" as="geometry">
            <mxRectangle width="150" height="70" as="alternateBounds" />
          </mxGeometry>
        </mxCell>
        <mxCell id="LolMLs2FBR9ibZrBii9a-12" value="đặt hàng xong phải kiểm tra lại để xác nhận đơn hàng chính xác" style="shape=partialRectangle;html=1;whiteSpace=wrap;connectable=0;strokeColor=inherit;overflow=hidden;fillColor=none;top=0;left=0;bottom=0;right=0;pointerEvents=1;" parent="LolMLs2FBR9ibZrBii9a-8" vertex="1">
          <mxGeometry x="433" width="257" height="70" as="geometry">
            <mxRectangle width="257" height="70" as="alternateBounds" />
          </mxGeometry>
        </mxCell>
        <mxCell id="LolMLs2FBR9ibZrBii9a-13" value="" style="shape=tableRow;horizontal=0;startSize=0;swimlaneHead=0;swimlaneBody=0;strokeColor=inherit;top=0;left=0;bottom=0;right=0;collapsible=0;dropTarget=0;fillColor=none;points=[[0,0.5],[1,0.5]];portConstraint=eastwest;" parent="LolMLs2FBR9ibZrBii9a-2" vertex="1">
          <mxGeometry y="140" width="690" height="70" as="geometry" />
        </mxCell>
        <mxCell id="LolMLs2FBR9ibZrBii9a-14" value="đặt hàng" style="shape=partialRectangle;html=1;whiteSpace=wrap;connectable=0;strokeColor=inherit;overflow=hidden;fillColor=none;top=0;left=0;bottom=0;right=0;pointerEvents=1;" parent="LolMLs2FBR9ibZrBii9a-13" vertex="1">
          <mxGeometry width="143" height="70" as="geometry">
            <mxRectangle width="143" height="70" as="alternateBounds" />
          </mxGeometry>
        </mxCell>
        <mxCell id="LolMLs2FBR9ibZrBii9a-15" value="xem đánh giá" style="shape=partialRectangle;html=1;whiteSpace=wrap;connectable=0;strokeColor=inherit;overflow=hidden;fillColor=none;top=0;left=0;bottom=0;right=0;pointerEvents=1;" parent="LolMLs2FBR9ibZrBii9a-13" vertex="1">
          <mxGeometry x="143" width="140" height="70" as="geometry">
            <mxRectangle width="140" height="70" as="alternateBounds" />
          </mxGeometry>
        </mxCell>
        <mxCell id="LolMLs2FBR9ibZrBii9a-16" value="extend" style="shape=partialRectangle;html=1;whiteSpace=wrap;connectable=0;strokeColor=inherit;overflow=hidden;fillColor=none;top=0;left=0;bottom=0;right=0;pointerEvents=1;" parent="LolMLs2FBR9ibZrBii9a-13" vertex="1">
          <mxGeometry x="283" width="150" height="70" as="geometry">
            <mxRectangle width="150" height="70" as="alternateBounds" />
          </mxGeometry>
        </mxCell>
        <mxCell id="LolMLs2FBR9ibZrBii9a-17" value="xem đánh giá có thể xem hoặc không ( xem để nắm chắc rằng món hàng chính xác là thứ cần mua)" style="shape=partialRectangle;html=1;whiteSpace=wrap;connectable=0;strokeColor=inherit;overflow=hidden;fillColor=none;top=0;left=0;bottom=0;right=0;pointerEvents=1;" parent="LolMLs2FBR9ibZrBii9a-13" vertex="1">
          <mxGeometry x="433" width="257" height="70" as="geometry">
            <mxRectangle width="257" height="70" as="alternateBounds" />
          </mxGeometry>
        </mxCell>
        <mxCell id="LolMLs2FBR9ibZrBii9a-18" value="" style="shape=tableRow;horizontal=0;startSize=0;swimlaneHead=0;swimlaneBody=0;strokeColor=inherit;top=0;left=0;bottom=0;right=0;collapsible=0;dropTarget=0;fillColor=none;points=[[0,0.5],[1,0.5]];portConstraint=eastwest;" parent="LolMLs2FBR9ibZrBii9a-2" vertex="1">
          <mxGeometry y="210" width="690" height="70" as="geometry" />
        </mxCell>
        <mxCell id="LolMLs2FBR9ibZrBii9a-19" value="kiểm tra giỏ hàng" style="shape=partialRectangle;html=1;whiteSpace=wrap;connectable=0;strokeColor=inherit;overflow=hidden;fillColor=none;top=0;left=0;bottom=0;right=0;pointerEvents=1;" parent="LolMLs2FBR9ibZrBii9a-18" vertex="1">
          <mxGeometry width="143" height="70" as="geometry">
            <mxRectangle width="143" height="70" as="alternateBounds" />
          </mxGeometry>
        </mxCell>
        <mxCell id="LolMLs2FBR9ibZrBii9a-20" value="đề xuất hoá đơn" style="shape=partialRectangle;html=1;whiteSpace=wrap;connectable=0;strokeColor=inherit;overflow=hidden;fillColor=none;top=0;left=0;bottom=0;right=0;pointerEvents=1;" parent="LolMLs2FBR9ibZrBii9a-18" vertex="1">
          <mxGeometry x="143" width="140" height="70" as="geometry">
            <mxRectangle width="140" height="70" as="alternateBounds" />
          </mxGeometry>
        </mxCell>
        <mxCell id="LolMLs2FBR9ibZrBii9a-21" value="&#xa;&lt;span style=&quot;color: rgb(0, 0, 0); font-family: Arial, sans-serif; font-size: 16px; font-style: normal; font-variant-ligatures: normal; font-variant-caps: normal; font-weight: 400; letter-spacing: normal; orphans: 2; text-align: start; text-indent: 0px; text-transform: none; widows: 2; word-spacing: 0px; -webkit-text-stroke-width: 0px; white-space: pre-wrap; background-color: rgb(255, 255, 255); text-decoration-thickness: initial; text-decoration-style: initial; text-decoration-color: initial; display: inline !important; float: none;&quot;&gt;association&lt;/span&gt;&#xa;&#xa;" style="shape=partialRectangle;html=1;whiteSpace=wrap;connectable=0;strokeColor=inherit;overflow=hidden;fillColor=none;top=0;left=0;bottom=0;right=0;pointerEvents=1;" parent="LolMLs2FBR9ibZrBii9a-18" vertex="1">
          <mxGeometry x="283" width="150" height="70" as="geometry">
            <mxRectangle width="150" height="70" as="alternateBounds" />
          </mxGeometry>
        </mxCell>
        <mxCell id="LolMLs2FBR9ibZrBii9a-22" value="bắt buộc phải có hoá đơn để thanh toán" style="shape=partialRectangle;html=1;whiteSpace=wrap;connectable=0;strokeColor=inherit;overflow=hidden;fillColor=none;top=0;left=0;bottom=0;right=0;pointerEvents=1;" parent="LolMLs2FBR9ibZrBii9a-18" vertex="1">
          <mxGeometry x="433" width="257" height="70" as="geometry">
            <mxRectangle width="257" height="70" as="alternateBounds" />
          </mxGeometry>
        </mxCell>
        <mxCell id="LolMLs2FBR9ibZrBii9a-23" value="" style="shape=tableRow;horizontal=0;startSize=0;swimlaneHead=0;swimlaneBody=0;strokeColor=inherit;top=0;left=0;bottom=0;right=0;collapsible=0;dropTarget=0;fillColor=none;points=[[0,0.5],[1,0.5]];portConstraint=eastwest;" parent="LolMLs2FBR9ibZrBii9a-2" vertex="1">
          <mxGeometry y="280" width="690" height="70" as="geometry" />
        </mxCell>
        <mxCell id="LolMLs2FBR9ibZrBii9a-24" value="đặt hàng" style="shape=partialRectangle;html=1;whiteSpace=wrap;connectable=0;strokeColor=inherit;overflow=hidden;fillColor=none;top=0;left=0;bottom=0;right=0;pointerEvents=1;" parent="LolMLs2FBR9ibZrBii9a-23" vertex="1">
          <mxGeometry width="143" height="70" as="geometry">
            <mxRectangle width="143" height="70" as="alternateBounds" />
          </mxGeometry>
        </mxCell>
        <mxCell id="LolMLs2FBR9ibZrBii9a-25" value="đề xuất hoá đơn" style="shape=partialRectangle;html=1;whiteSpace=wrap;connectable=0;strokeColor=inherit;overflow=hidden;fillColor=none;top=0;left=0;bottom=0;right=0;pointerEvents=1;" parent="LolMLs2FBR9ibZrBii9a-23" vertex="1">
          <mxGeometry x="143" width="140" height="70" as="geometry">
            <mxRectangle width="140" height="70" as="alternateBounds" />
          </mxGeometry>
        </mxCell>
        <mxCell id="LolMLs2FBR9ibZrBii9a-26" value="extend" style="shape=partialRectangle;html=1;whiteSpace=wrap;connectable=0;strokeColor=inherit;overflow=hidden;fillColor=none;top=0;left=0;bottom=0;right=0;pointerEvents=1;" parent="LolMLs2FBR9ibZrBii9a-23" vertex="1">
          <mxGeometry x="283" width="150" height="70" as="geometry">
            <mxRectangle width="150" height="70" as="alternateBounds" />
          </mxGeometry>
        </mxCell>
        <mxCell id="LolMLs2FBR9ibZrBii9a-27" value="" style="shape=partialRectangle;html=1;whiteSpace=wrap;connectable=0;strokeColor=inherit;overflow=hidden;fillColor=none;top=0;left=0;bottom=0;right=0;pointerEvents=1;" parent="LolMLs2FBR9ibZrBii9a-23" vertex="1">
          <mxGeometry x="433" width="257" height="70" as="geometry">
            <mxRectangle width="257" height="70" as="alternateBounds" />
          </mxGeometry>
        </mxCell>
      </root>
    </mxGraphModel>
  </diagram>
</mxfile>
